<global>
amp_veltrack=0.0
ampeg_release=0.25
xfin_hicc1=24
xfin_locc1=0
xfout_hicc1=127
xfout_locc1=127

<group>
amp_veltrack=0
ampeg_decay=20
ampeg_release=0.35
ampeg_sustain=0
group_label=Group_0-45
lpc_hicc1=42
lpc_locc1=0

<region>
hikey=a#4
hivel=127
lokey=a4
lovel=1
lpc=ZY84Qr/K7MJYPdRCxYUQwjUgsEBdDGnAL4ksQWMDlcEPqyBBNSviwB3zGkH5BlHAN51VQL6UjsBulTBAOdmRwLw/MkC+7ba6pgXuP2fZesCJ77BA/GM3P6HwJsHWzuRA
lpc_rms=-23.37
offset=1741
pitch_keycenter=a#4
sample=Flute_mordent_semitone_PP_A#4.opus
tune=-4

<region>
hikey=a#5
hivel=127
lokey=a5
lovel=1
lpc=C3+PQVdArMGuyOlAZ0CeviozzD1cRl8/Wg6RPm9ckz9wW4y/GImbv6OGEz7h7SK94vYzQJeqKb84ABc+2JQawIGeZT97s1m+l+8dQEEMu75As0O/IRLPvRgjAUBTd6bA
lpc_rms=-25.80
offset=1286
pitch_keycenter=a#5
sample=Flute_mordent_semitone_PP_A#5.opus
tune=-12

<region>
hikey=c5
hivel=127
lokey=b4
lovel=1
lpc=IvreQVQ1eMKiiTRC+yhLwYaXMUDbLwtAYkN3QFDKJcGOEZBAaEmGwH4nikBleIO7KaMiQHJ5N8A8AKM//BcPwO2wjz+1KHs+e1SHPzwaGMA75/c/MzKev3TUij5P4HA/
lpc_rms=-27.65
offset=1061
pitch_keycenter=c5
sample=Flute_mordent_semitone_PP_C5.opus
tune=-23

<region>
hikey=D6
hivel=127
lokey=b5
lovel=1
lpc=HL2IQVNLgsG0/A0+CFrFQCk2PMBMWJ5AdWuLvtNhi7/ajydAMZqRv1jwTEABOTS+SO6EP1nY3T/I5y6/46dmP+6Olj9HLVo/cVpAQFT4k7+mmgNAhdeRwPVsN8BmrblA
lpc_rms=-26.07
offset=2645
pitch_keycenter=c6
sample=Flute_mordent_semitone_PP_C6.opus
tune=-26

<region>
hikey=d5
hivel=127
lokey=c#5
lovel=1
lpc=P6TeQVT2W8JF6QFCzRDBwCySlL7eyEpBujvpwAF9hcAHKCg/kLzFwO0sEUHXCfu/Gm/ZQIy9zcDxIog6syyMwH+RJEBWF3dAKMIxQFpFRsBjCQe/3UZ6v2PM0r9p3VRA
lpc_rms=-24.04
offset=11413
pitch_keycenter=d5
sample=Flute_mordent_semitone_PP_D5.opus
tune=-11

<region>
hikey=e4
hivel=127
lokey=B3
lovel=1
lpc=YBCRQlOsNsPKRRlDmWU6wmuDkUHi+ITBmBGbwNB6wUBk32ZAIkQ1wFhsckAglBvBAOUpQbucHMGXEuxAais1v7FRZkCQdAbBNnOAQExzCj+PeMS/654cwF+apkBPsM+/
lpc_rms=-24.76
offset=6407
pitch_keycenter=e4
sample=Flute_mordent_semitone_PP_E4.opus
tune=+5

<region>
hikey=e5
hivel=127
lokey=d#5
lovel=1
lpc=XAQGQorLdcLLTgxCQrXRwJaft7/KxBpBRNZHv/zS6cDU6dlAfTYSwW/Y9kCteH7A3jrQQB6g5cBvDa9AbtODwOMKrkBn2pS/f2HVP9qhTcDp+m++JoG8v4nTV0BXaKg/
lpc_rms=-23.72
offset=3191
pitch_keycenter=e5
sample=Flute_mordent_semitone_PP_E5.opus
tune=+2

<region>
hikey=e6
hivel=127
lokey=d#6
lovel=1
lpc=X52dQShudcEl8fa/Z+uXvwd3Az9ON9RA9x4qP/wAGb7P450/3U+2vw9tLkC+NiTABAYEQBeZj79/hRg/K+rPvf1y7z+ga+bAvp3VwFtLv0CU8L1AlkG/PrXbmr/XysjA
lpc_rms=-24.93
offset=2005
pitch_keycenter=e6
sample=Flute_mordent_semitone_PP_E6.opus
tune=-17

<region>
hikey=f#4
hivel=127
lokey=f4
lovel=1
lpc=jVdEQuQICMNb2gJD0u9AwixyE0E66gTBEmMzQVZLYcHwSaxAjRdEP7UIC0Cu1g1A7dbVwK6Aez8iTNg/b+/ZP8crEsD9Zuk/HJLRvzYbsD98Td++np65P3GujMCUQC9A
lpc_rms=-27.05
offset=3278
pitch_keycenter=f#4
sample=Flute_mordent_semitone_PP_F#4.opus
tune=-1

<region>
hikey=f#5
hivel=127
lokey=f5
lovel=1
lpc=xAIxQq9OicKyafBBYp6nv3JWJ8DrqmhBHN6ywFR61cCZo89APiL1wHjmGUEwZ15AUDgsQE5gOsHdFsNAlVXBwAKyzEDrqzNA3vjJP0p62r/Y66o/Upv/v013HkBOItM/
lpc_rms=-20.96
offset=2010
pitch_keycenter=f#5
sample=Flute_mordent_semitone_PP_F#5.opus
tune=-4

<region>
hikey=A#6
hivel=127
lokey=f6
lovel=1
lpc=qjm7QWWDY8H3SmrACr5tQFXI1b/lcpFAi/tuQOooXEDtTdI/yqN7vw9tG0AQh+K/YCk0QB1EdL9t2BpAe9V+wLRDbcEBJQlBRl6yQHiUqb9C1ie+BDcXwB+NccDRWS/A
lpc_rms=-22.15
offset=1683
pitch_keycenter=f#6
sample=Flute_mordent_semitone_PP_F#6.opus
tune=-17

<region>
hikey=g#4
hivel=127
lokey=g4
lovel=1
lpc=taghQsXVy8L+Pa5CSDXxwYYmKUHxItLAo+nOQLdbG8GZdZlARU2swFHUDEElPbfAwJ63QNfkuMDdBag/Bim/vx0jlEB/7G7AW8twQOSMgMC3gSFAaliHP6tYscCTX3ZA
lpc_rms=-26.64
offset=1471
pitch_keycenter=g#4
sample=Flute_mordent_semitone_PP_G#4.opus
tune=+1

<region>
hikey=g#5
hivel=127
lokey=g5
lovel=1
lpc=xHLWQbhjAMIPJGhA55c/QFptT0BzNmpAYim1P01PWMBDLbS98fI7v1sL9z9pxYa/X3yJQFY0QcCmE49A4rr/v0lFGMD73fk/JcbsPi7jvj9dhH4/ncgKQIklzb8JN76/
lpc_rms=-22.31
offset=2146
pitch_keycenter=g#5
sample=Flute_mordent_semitone_PP_G#5.opus
tune=-14

<group>
amp_veltrack=0
ampeg_decay=20
ampeg_release=0.35
ampeg_sustain=0
group_label=Group_46-90
lpc_hicc1=84
lpc_locc1=43

<region>
hikey=a#5
hivel=127
lokey=a5
lovel=1
lpc=45gHQue7L8IuENlBrDaBwAadrj/8ips+OXeiQGuiI8B8QodAuogjPxHvJUDYSvHAQnl+QRykacDv1RbAyb6OP3ww60BYo5HAZpuuQN+aRj8XxbQ+VyTXPj5zEUFAwRrB
lpc_rms=-12.20
offset=924
pitch_keycenter=a#5
sample=Flute_mordent_semitone_MF_A#5.opus
tune=-18

<region>
hikey=D6
hivel=127
lokey=b5
lovel=1
lpc=USjBQbUE1sG/HtpAbzuNQJU0rcB+3ARB0Bv9PxIPHsBzCxJAdrPpv/xGg0BnNpZAkBjRPw+FZcBAJtE/Udv/PmaXVkCaoZBAUJyrvznT3L/ZoIxAdSTnvu4qJMHgHyxB
lpc_rms=-16.42
offset=1201
pitch_keycenter=c6
sample=Flute_mordent_semitone_MF_C6.opus
tune=-20

<region>
hikey=e4
hivel=127
lokey=B3
lovel=1
lpc=ID3hQbnsnMJIJKhCrqItwh3z1kDAx4RB1UOnweYszUATxBJAIh1twE1+AEFAdBjBnnwgQf1/OsGCl0NBk41QwSLPLEE444nAVZY4P94Ro7/2VIZAXKj/wDCv5kAn+hXA
lpc_rms=-21.96
offset=4467
pitch_keycenter=e4
sample=Flute_mordent_semitone_MF_E4.opus
tune=+3

<region>
hikey=e5
hivel=127
lokey=C5
lovel=1
lpc=HPYaQp6jk8LMmVBCfg2OwUojlj8NWS9Bg7/lwMozJMBbhhhBQOndwHtEmUDA6KvAoDacQDuWqsBRyaFAp516v6EBTkCMNTo/WkP4vy/nCkAFdwrA1EC+viC2b8BRXvlA
lpc_rms=-16.78
offset=6241
pitch_keycenter=e5
sample=Flute_mordent_semitone_MF_E5.opus
tune=-1

<region>
hikey=e6
hivel=127
lokey=d#6
lovel=1
lpc=gwGRQWAOW8ECzqs/xvyRQLfyuL+vzIVAtUgNQJulMED/5BZAhf8IQJbzPEAinug/pbI0QLMk/T+RzB9AgEMHQLMtcEDv9TXAL+jzwJjrKUEUjBhAvaWhv5q9HEDFDbi/
lpc_rms=-18.52
offset=872
pitch_keycenter=e6
sample=Flute_mordent_semitone_MF_E6.opus
tune=-23

<region>
hikey=f#4
hivel=127
lokey=f4
lovel=1
lpc=hEOzQUL/Z8JSK1tCJ+GuwY/vFMAbfGNB4dYewRnXFMAgU2hAR5o0v6awtj8dzt+/dP80QPkwLMBQ2QJAblzMwLyFFkFzI8zAP6sBQMktQb9l/WxAYBpvwF5/zT4Oh98+
lpc_rms=-22.01
offset=4674
pitch_keycenter=f#4
sample=Flute_mordent_semitone_MF_F#4.opus
tune=-2

<region>
hikey=f#5
hivel=127
lokey=f5
lovel=1
lpc=nH/NQWwhPsLBOAlCLov7wH70b8Ac8/FA2u+3wO5axUBTQILAYZtKQCOcEL+pDyrASRviQPrIEcHVl1hButQrwZu0i0D0IhBAxndBvppQbsAWpJBAxf89v4qIVb/Pu05A
lpc_rms=-16.23
offset=2814
pitch_keycenter=f#5
sample=Flute_mordent_semitone_MF_F#5.opus
tune=-7

<region>
hikey=f#6
hivel=127
lokey=f6
lovel=1
lpc=r1TsQTPIksEC3ZI/FQXQQG+So8DCAFlAeHkGQPyqJEGbB9o/1DRXwJOep0Dl/HLAOyKEQNLncMBL295AE5oowT0/h8GPdDRBGztRPzBRYcCGlZ0/aFGTPuKqVMDQNxPB
lpc_rms=-12.63
offset=9284
pitch_keycenter=f#6
sample=Flute_mordent_semitone_MF_F#6.opus
tune=-24

<region>
hikey=B4
hivel=127
lokey=g4
lovel=1
lpc=fFMkQjtl6cJaI/hC1N6GwiGICEI/Bo3BM7y+P+fVUcD0XQlBAInDwEoLtkDVD9fAvKoJQa6gIME7IiJBoVBPwenyPUEBqr7A+2ntQMvwJ8EN0wFB9w2ZwB/iTj+/n2Y/
lpc_rms=-18.34
offset=1856
pitch_keycenter=g#4
sample=Flute_mordent_semitone_MF_G#4.opus
tune=+7

<region>
hikey=g#5
hivel=127
lokey=g5
lovel=1
lpc=ThGfQXcl58ERkVtB79zqP6U0mMDjBOBAPfhQvib6hcDNsF9Ayvzfv62TJUB9bdg/T4fKPcI9hL96Ja4+t8nEPragXUAi+zi/vShZv/lRuz9TLMa/h3YIQPDogUA/jifA
lpc_rms=-17.77
offset=1177
pitch_keycenter=g#5
sample=Flute_mordent_semitone_MF_G#5.opus
tune=-2

<region>
hikey=A#6
hivel=127
lokey=g6
lovel=1
lpc=YmjXQTBrocHFlnY/6nwSQTfnRMDPF3FAPMHXQFFzSkBaWWtAtHAfv798hEC19QbAvFOWQMtacsBmOFbBloUCQUuHHkHAhh3Bsh15QLtRdMAU9zPA8CUvwFDHCz+9yaK+
lpc_rms=-9.93
offset=4382
pitch_keycenter=g#6
sample=Flute_mordent_semitone_MF_G#6.opus
tune=-32

<group>
amp_veltrack=0
ampeg_decay=20
ampeg_release=0.35
ampeg_sustain=0
group_label=Group_91-127
lpc_hicc1=127
lpc_locc1=85

<region>
hikey=a#4
hivel=127
lokey=a4
lovel=1
lpc=mpyRQctYM8LdcB9CL/6Awf1gokDFQsm/1L4OQPZeosCmoSxAiv6dv2TgGEDGRuW/4ayGQFBTwsCWUJlAkuuSwNHhWkD4sdi/q1YxQFav5L/U6IS/lP/bP1hsEsDZMdI/
lpc_rms=-17.18
offset=6782
pitch_keycenter=a#4
sample=Flute_mordent_semitone_FF_A#4.opus
tune=-3

<region>
hikey=a#5
hivel=127
lokey=a5
lovel=1
lpc=J+qYQT/rosFcLvpACt4iQPk9BcCx0q5AGcoRwNhSPECNIrG/YDsovZ+NhkBS0aG+e+siQAMsiMAu1u9Ab8FLwLPnAECYKvs9pCrePy5Nnj9xip4/Y7gCP/+TJEB3P3zA
lpc_rms=-14.36
offset=13440
pitch_keycenter=a#5
sample=Flute_mordent_semitone_FF_A#5.opus
tune=-26

<region>
hikey=a#6
hivel=127
lokey=a6
lovel=1
lpc=je36QbE38sHGABhByfkfQN0NGkAoqdxA4I4BQbyFJsAnqA9B/fiSwEEYOEE491k+b18XwabjQT9C+oNBotVZPwAQzj9ajZC/qUf0PecUC8ArmW1AYsMXQJ6dIT/XUeU/
lpc_rms=-9.94
offset=1762
pitch_keycenter=A#6
sample=Flute_mordent_semitone_FF_A#6.opus
tune=-21

<region>
hikey=D5
hivel=127
lokey=b4
lovel=1
lpc=RWgtQbCry8FbvK9B5/D1wDJYlT+HyoE/VgUrwA0r3j8zSjg+IMuDv3Uys75tm2hAkVPXv3USQcDVvSVAWB4Dv6sjqD/8uSXAWGUfQAbdTr/I5Bu/bcrUPTkkVT+13AO/
lpc_rms=-21.04
offset=1866
pitch_keycenter=c5
sample=Flute_mordent_semitone_FF_C5.opus
tune=-18

<region>
hikey=c6
hivel=127
lokey=b5
lovel=1
lpc=IFOrQe0CwMGE3QxBfTBYPzoKisB+4rVALWZhwBM7CkC9J8e+vLxbv46cUkDp9sy/JgjYPhQDsD/FegrA94fqP6llwj9mYwvAVLlSQGxsdsB4QJJAHR0gwOV6QsGo3BBB
lpc_rms=-14.98
offset=1958
pitch_keycenter=c6
sample=Flute_mordent_semitone_FF_C6.opus
tune=-36

<region>
hikey=d4
hivel=127
lokey=B3
lovel=1
lpc=oPvFQTddgsKWn4BC6d0AwswxIkG/36NAwWYiwVzUgkDZdQfAzlURP0z55z/7lb2/MXibQPXm0sAohHpAWpxtwIjsEkA87RA/W665P6lxMMAMMrE/K81LP+DaV8AaYAtA
lpc_rms=-23.07
offset=3653
pitch_keycenter=d4
sample=Flute_mordent_semitone_FF_D4.opus
tune=-6

<region>
hikey=d6
hivel=127
lokey=c#6
lovel=1
lpc=EwvtQU1wysHI+JNACJoEQPsWkD/0C4NA6GylPdH4nj8+MTtAN0vrPolIIkCLgSJAQy25viqovT/364NAOoaHPoqcyD/2EP0/zB0nQLRJQcA5jmXBuVkJQaZVCUEzq2vA
lpc_rms=-10.36
offset=8648
pitch_keycenter=d6
sample=Flute_mordent_semitone_FF_D6.opus
tune=-20

<region>
hikey=e4
hivel=127
lokey=d#4
lovel=1
lpc=apbmQUrgjcLSu2NC5bFpwTvtBEG4Dy3BktblP3HrA8CD5tpAKf3TwE080kABsAvBRtfmQAQMHMALSoRAq2QCwfDv/0ASo4rAvEkXPXmJjL+ER3RAFOTiPm/RTMBNI2E/
lpc_rms=-20.08
offset=4014
pitch_keycenter=e4
sample=Flute_mordent_semitone_FF_E4.opus
tune=-7

<region>
hikey=e5
hivel=127
lokey=d#5
lovel=1
lpc=pmhoQUE6y8H5v3hBrvvKwF6Eg0Bq/kM/DJNAvk6WCz8NezHAx7C9P8EegT9G4/Y+N9odwFgIoj+J6xZAx+FGwB4HKkC4QpO/L0tQQEIvjsCKxSZAcO/wPisEcsChYoBA
lpc_rms=-20.66
offset=5710
pitch_keycenter=e5
sample=Flute_mordent_semitone_FF_E5.opus
tune=-13

<region>
hikey=e6
hivel=127
lokey=d#6
lovel=1
lpc=0GkOQt0l+8FdHwhBBe4WQA1fg0CxHIhA0QbQP9kWt0DDZyJADlAIQBwEWkAhHK5ATUkDPzmFa0Cs6bhAkxSVvl+nA0FS5k7BVjQnwSv+wEF6b5bA3VdRP0w5Db8dq26/
lpc_rms=-8.78
offset=1711
pitch_keycenter=e6
sample=Flute_mordent_semitone_FF_E6.opus
tune=-36

<region>
hikey=f#4
hivel=127
lokey=f4
lovel=1
lpc=ULrDQa2Od8IS2k1C45tBwQjUY0AChgjBl0R6QOMJjcAViRpBO+EbwZ4s4kBhGa/AAlfWQMq/2cCjiKJAXB+3wOb6r0DXWa2/ShFPP0pxd8AfrWlAZZ5AwGahZED5dte/
lpc_rms=-18.42
offset=4418
pitch_keycenter=f#4
sample=Flute_mordent_semitone_FF_F#4.opus
tune=-13

<region>
hikey=f#5
hivel=127
lokey=f5
lovel=1
lpc=SblqQTkDv8H5mXVB7+tPwJBNUz8tn8c/qYLPv+YKyj6pSoU/BJorv3x1kj9elLm/+h8pQEV9ar/TQH8/VrURv34MCkDAD9e/jskNQKO36z5XB1C/IfkQP+XBwr8G8TRA
lpc_rms=-17.23
offset=2191
pitch_keycenter=f#5
sample=Flute_mordent_semitone_FF_F#5.opus
tune=-16

<region>
hikey=f#6
hivel=127
lokey=f6
lovel=1
lpc=aLTaQZHwrcF11cxAGLAwQFXQ2r825Y2/DP2MQPA9FUFFSgo+ZEgnPzwI6L46PxQ/KEzAPxEyE8B/+mRATZrlwCIfkMGrNotBMf+uwFB3HMAOOP0/JULDP1Fiq8AmKQPB
lpc_rms=-12.96
offset=818
pitch_keycenter=f#6
sample=Flute_mordent_semitone_FF_F#6.opus
tune=-35

<region>
hikey=g#4
hivel=127
lokey=g4
lovel=1
lpc=uvSCQbGeFsICt+FBCsu3wKszOsDP6dlA6rPMwL1Q0T+MOc2/CovIP7506j+DBuy/N9GJP4FEVsAXUphABvl7wJwtOUDx65C/cBmrvl7JK7xDH4M/86IhP1qhPcDqGdU/
lpc_rms=-19.60
offset=2970
pitch_keycenter=g#4
sample=Flute_mordent_semitone_FF_G#4.opus
tune=-5

<region>
hikey=g#5
hivel=127
lokey=g5
lovel=1
lpc=G/1SQbbblcEmyBlBBh1fP/oCd79eSjo/gSZLP109Jz8xO48/K9x0vw4Buj4ArRU/V6XvPwwGYj/unEfAEneQQFtwvz2XN7+/ZEslv65sjEAF5v+/AOvgP8CtnL6H8oY/
lpc_rms=-17.67
offset=10217
pitch_keycenter=g#5
sample=Flute_mordent_semitone_FF_G#5.opus
tune=-11

<region>
hikey=g#6
hivel=127
lokey=g6
lovel=1
lpc=bTSzQakVS8Gim5BA6obZP7hvS0B+iztAa0a4QEz7DUHoT1o/wd9jQPFFc0C+t0tAFz9rQLaSsT7uEk/BexcUQRyjOUDF4SK/eUKqP2u1jb7rpjbAHKWewA6IF0AMzJW/
lpc_rms=-13.08
offset=832
pitch_keycenter=g#6
sample=Flute_mordent_semitone_FF_G#6.opus
tune=-35

<group>
amp_veltrack=0
ampeg_attack=2
ampeg_release=0.35
group_label=PP
lpc_hicc1=42
lpc_locc1=0
volume=-2.5

<region>
hikey=D4
hivel=127
lokey=B3
loop_end=253738
loop_mode=loop_continuous
loop_start=107185
loop_xfade=18648
lovel=0
lpc=UUCZQuz7RcMH8BxDvxLOwdFrHEGXZ9rBhTnTPqwLMkB3hyBBgMCgwASj/z/rt/bAvxIKQbI/LcALspk+7k02wDFvBUCt1C6/jeU2QBeYGcArKxxApSrbv3tiVcDb90hA
lpc_rms=-27.53
pitch_keycenter=D4
sample=Flute_sustain_PP_D4.opus
tune=-1

<region>
hivel=127
key=D#4
loop_end=254855
loop_mode=loop_continuous
loop_start=107657
loop_xfade=18730
lovel=0
lpc=9ZJCQoBb/MI+g9lC0TP1wRalqEDbcgHBgVBAv5/iVEBCDwhAQi9mwErdtz8DjYO/q0z8P8mZd8A+LtRA24OwwFq8mUDnSnHAnDAVQO89L8BsABtAheApwBY4LT/KDWs/
lpc_rms=-30.83
sample=Flute_sustain_PP_D#4.opus

<region>
hivel=127
key=E4
loop_end=259726
loop_mode=loop_continuous
loop_start=109715
loop_xfade=19088
lovel=0
lpc=D+t3Qh5JJMO+zw5DuRshwtWhG0FrATfBvuDqvyIFlr/2/MxAfwA2P8znmD8F9NDAyMNkQCP9b8Bak5BAgzHTv4dIDEBkcJu/xd+0PgJ5DMDb1uA/6tYaQJJq4sD0YopA
lpc_rms=-28.73
offset=10314
sample=Flute_sustain_PP_E4.opus

<region>
hivel=127
key=F4
loop_end=256707
loop_mode=loop_continuous
loop_start=108440
loop_xfade=18866
lovel=0
lpc=wuduQnvjI8MTmhdDay5SwgTRpUFcP53BW3aGPxwdOMBsuklBddcdwUKapkDffUfA9RqSQGW41MCAnK5A/CG+v77BTj9sLrvAMU7YQALiy7/Nume/+EOtQJ3TI8G6DKtA
lpc_rms=-28.20
sample=Flute_sustain_PP_F4.opus
tune=-1

<region>
hivel=127
key=F#4
loop_end=254525
loop_mode=loop_continuous
loop_start=107518
loop_xfade=18706
lovel=0
lpc=PxKhQs6sXsPbh09DiBqPwpBQo0HQBYDBU6SLv/gVi79YBxNBLqagwJEchj28Hn3A6EDhQEUi7cBriCBB/y0GwZKOq0CVQ63A12NAQBJJkb5ESR9AqhULQWFtuMHJzUVB
lpc_rms=-25.41
sample=Flute_sustain_PP_F#4.opus

<region>
hivel=127
key=G4
loop_end=268782
loop_mode=loop_continuous
loop_start=113540
loop_xfade=19754
lovel=0
lpc=T1WQQvL7QcPygTBD7bqJwinrIUJp5t7BNBNvwFHOiUDoWEVAmef4wKCi80Dmo+i/6GmkQB8XysBsmjRAkq1TwN5BdECUq1vAUFHyP2ekCz5dn0tAHDeUwC3AGL/A8xJA
lpc_rms=-25.77
offset=13041
sample=Flute_sustain_PP_G4.opus
tune=+1

<region>
hivel=127
key=G#4
loop_end=252778
loop_mode=loop_continuous
loop_start=106780
loop_xfade=18578
lovel=0
lpc=ljWHQg9KNcMwpiNDCyw8wry5AEHnS2vBxL9rwN37y0DQ1u9AP0sdwSoOvkAOd66/t/NSQBMvF8EoLSBBFRsgwZ5ASUFEHRbB3zydP2Khhz/r/lhAVl40P1ncGsGJmtBA
lpc_rms=-24.34
sample=Flute_sustain_PP_G#4.opus

<region>
hivel=127
key=A4
loop_end=259486
loop_mode=loop_continuous
loop_start=109613
loop_xfade=19071
lovel=0
lpc=hOafQoQAVMN6LDRDHrVewjpbNEK7MyTClHAPP9xEdME8pd5BhtqgwftFrUEl9TPBn0LoQBGREsGpr1ZA77qFwP1kG0EtrRnBBXqzPvQChT9XAwJBZrHLQNfLzMENxmFB
lpc_rms=-21.10
sample=Flute_sustain_PP_A4.opus
tune=+1

<region>
hivel=127
key=A#4
loop_end=246927
loop_mode=loop_continuous
loop_start=104308
loop_xfade=18148
lovel=0
lpc=R8pDQvsR+MLGrM9CzCIPwmF5iUGwuHZAI7etwSchy0Buq57AHXytQHJtD0F9JePAX9lMQBqWD8GRIQlBO6y5wGzdpkDixkDAytQBQHTSbsB+1XpAaKNqQBQ2KMFMJ79A
lpc_rms=-24.84
sample=Flute_sustain_PP_A#4.opus
tune=+1

<region>
hivel=127
key=B4
loop_end=252853
loop_mode=loop_continuous
loop_start=106811
loop_xfade=18583
lovel=0
lpc=RJkFQiNboMKjy4BC/cDuwUDD0EF1rt3As0HDwJKOTsA3LZm/AYPePnfCxUBQuJy/V79WQGOiCcE/QdhAZo6rwCnzwkBz55fAcdTOP8J96L9hZu0/9mN0QGfCucAt8hRA
lpc_rms=-28.32
sample=Flute_sustain_PP_B4.opus
tune=-1

<region>
hivel=127
key=C5
loop_end=247957
loop_mode=loop_continuous
loop_start=104743
loop_xfade=18223
lovel=0
lpc=TcPoQaARgML9NCpCdjI0wS/2LEFMjck//gcZwXx/gcB2GHlAebOXP/4ulUArHT3Ad381PneMjsBtpqpAriVZwBkWQ0AIm2i/yxIVQJnV7MBgS7lA3rF4P80SjcCOejpA
lpc_rms=-28.24
sample=Flute_sustain_PP_C5.opus

<region>
hivel=127
key=C#5
loop_end=247349
loop_mode=loop_continuous
loop_start=104486
loop_xfade=18179
lovel=0
lpc=jE25QearOMKGB8xBHFc1wMtVb0AHrUhAZKZnwLIvocB1/xlA21EOwKcWxkAjmGbAudQVQMLvJsADK6Q/707Hv05Wvz/LmTM/IosJv8nQKb4UNpM/V7lCP7YwccA0+yxA
lpc_rms=-30.73
sample=Flute_sustain_PP_C#5.opus
tune=+2

<region>
hivel=127
key=D5
loop_end=241107
loop_mode=loop_continuous
loop_start=101849
loop_xfade=17720
lovel=0
lpc=k+IyQg9LqcLI7QNCocxUQVGxXkA9TYq+CprSwBh7ssD2JhBBLT8Vwd/3pUBebA3AQWVAQRleLsFPMGJArFIMwET72r+Nv8M/0xGAQMG9Sb9/ZaNAQpa7wGV4CcH/Px1B
lpc_rms=-24.61
sample=Flute_sustain_PP_D5.opus
tune=+1

<region>
hivel=127
key=D#5
loop_end=258428
loop_mode=loop_continuous
loop_start=109167
loop_xfade=18993
lovel=0
lpc=Rb0UQrOHicLMlA9CblzGwAs/TUA3pU9BbQIRwf8KZ8D1L7M//1bTwKtKPEFYHZ7A0ZqtQD1yzsBiUTVAORyEwM4GXkCMg25AhyXtPJk/tL+WoeI+RPYKwG4knsDp4/tA
lpc_rms=-23.65
sample=Flute_sustain_PP_D#5.opus
tune=+2

<region>
hivel=127
key=E5
loop_end=250539
loop_mode=loop_continuous
loop_start=105834
loop_xfade=18413
lovel=0
lpc=0GM1QgiskcKIjpBBqDkVQeAdcUGOqzW/hY/7wJ43A8ETo61AMaq9v5Aa6UBWHifAKY7dPwbvdsCr7JJAeRVUwOTNZ0Ch14rAZtamQOdFqz9aFfA74UWPwM5xGMCcsuJA
lpc_rms=-21.39
offset=5795
sample=Flute_sustain_PP_E5.opus

<region>
hivel=127
key=F5
loop_end=265838
loop_mode=loop_continuous
loop_start=112297
loop_xfade=19537
lovel=0
lpc=B/8EQr2FdMInjP9BIVFYwGfzIUGvuw3AFM4awTobqUBbySfARktcQC2pjkBYwMrAkwK9QEA18cAgjLxA1mhDwN/BtUCRzde//pbpv45Qlr+MJy5ArPkiQMq/k8CcRn1A
lpc_rms=-23.85
offset=15556
sample=Flute_sustain_PP_F5.opus

<region>
hivel=127
key=F#5
loop_end=258727
loop_mode=loop_continuous
loop_start=109293
loop_xfade=19015
lovel=0
lpc=w8JaQszKpcLsaQJCLL3swGKZykE72InAMJbtwE1sAMGIvTVBW/NlQIwwKsCrOMC+lZlKQBmKpMAprj5B2KQDwQY2fEA6fJi/YtMBQWLS9cCVR05AZqPOPxvwfr3xC5FA
lpc_rms=-21.41
sample=Flute_sustain_PP_F#5.opus
tune=+1

<region>
hivel=127
key=G5
loop_end=252649
loop_mode=loop_continuous
loop_start=106725
loop_xfade=18568
lovel=0
lpc=zRwFQjdqBcLBbSDBuPM3QYJNIEFVKwBAiVQEQM5TCMFoN3a/zhIkQLVwkEDJOJs/GomqP948TL6yrF/A4WBRPXTYAED2uvZA9wuKvAP958DZsnm+XWixQDIjvkDSZX/A
lpc_rms=-22.34
sample=Flute_sustain_PP_G5.opus
tune=+3

<region>
hivel=127
key=G#5
loop_end=251003
loop_mode=loop_continuous
loop_start=106030
loop_xfade=18447
lovel=0
lpc=GP8dQqRAS8LFe6pBoKbmwIqzKUFOdAjAkHkHQDym0j9Ju5pAbZfIwCYDeEA049HAI13+QD1rBT7CYURBLQT9wK9ohL/MQITAr//XQGLaXz+BWBNAT618QNcv2D4FCgLA
lpc_rms=-21.99
sample=Flute_sustain_PP_G#5.opus
tune=-1

<region>
hivel=127
key=A5
loop_end=250782
loop_mode=loop_continuous
loop_start=105937
loop_xfade=18431
lovel=0
lpc=R65YQvWwg8Lx6IdBaAucQPTG88CAV8pA7uDHQItXAEBLRJBA9IV/wR5x2L91IqZAXQbvQKYDrj78HKdALxKWwEqmlcD9nhTBgJ4nQVuP8kBUSco/tfR4wCKewkBWO1bB
lpc_rms=-20.13
sample=Flute_sustain_PP_A5.opus

<region>
hivel=127
key=A#5
loop_end=256730
loop_mode=loop_continuous
loop_start=108449
loop_xfade=18868
lovel=0
lpc=pWDJQWitzcE4nKVAwX9WQGA8TsB8+05ACD4VQOgbj71OMBM/Lpg3wCrs/b4wbAdAHHNLQBg+p7+73G1AKylywGmTrL8mN5U/XwY/QJy1kD5vrMQ/6UWivpGasz9lU8/A
lpc_rms=-23.81
sample=Flute_sustain_PP_A#5.opus
tune=-1

<region>
hivel=127
key=B5
loop_end=257683
loop_mode=loop_continuous
loop_start=108852
loop_xfade=18938
lovel=0
lpc=MpgIQoMK1MGXG1NA853bQP9itr9UNSdANhGov9W8LD+1Z6BAPWunwFMxfUDCirM+CBMwQPkxg74cYII/2uv4v0d9R0BWVg1Ay0+qv8bc0j/bl4Q/QfA0QNwaPD9yLFXB
lpc_rms=-24.64
offset=5048
sample=Flute_sustain_PP_B5.opus
tune=-1

<region>
hivel=127
key=C6
loop_end=273713
loop_mode=loop_continuous
loop_start=115623
loop_xfade=20116
lovel=0
lpc=Fi4cQsMm68HYwYlBDYYBwTRCQUDhuoNA/WnOPy1klsDjePVA8KMWwUdJI0FdjGDAwR+JQI3AEr/hyjXAwWGQQNTFKcDGtJ9An6HeP1FUI8Bu9se+CQa8QL+UgsEMMqjA
lpc_rms=-22.91
offset=6876
sample=Flute_sustain_PP_C6.opus
tune=+1

<region>
hivel=127
key=C#6
loop_end=265952
loop_mode=loop_continuous
loop_start=112345
loop_xfade=19546
lovel=0
lpc=AvxAQoAuCcKchprA+5POQGlZtcDkK0dASaisPd1+bL9tzApA7MGLwMM2r0A4HGXAiORNQBz8RcDPMs8/EjRvP2Gnkb820Z++obcUQPib5L5quXA/1kq2wZvKUcEZMLZB
lpc_rms=-21.95
sample=Flute_sustain_PP_C#6.opus

<region>
hivel=127
key=D6
loop_end=279060
loop_mode=loop_continuous
loop_start=117882
loop_xfade=20509
lovel=0
lpc=+HAgQnwF5MFUpZU/mPPDv8uF0LzAtFhAWu7vvycA4j8tQgK+0qqdv72br0B3UorAcollQBdF9b/yNidAIjaHv1Rd/T9NamW/4+4yQKPUvr8RQKjBbUWSwPBei0H1ll+/
lpc_rms=-21.60
offset=48626
sample=Flute_sustain_PP_D6.opus

<region>
hivel=127
key=D#6
loop_end=271145
loop_mode=loop_continuous
loop_start=114538
loop_xfade=19928
lovel=0
lpc=8fXEQWqpWcGMZKO+8CbPP59DXcAj12O/jB+gQL5CTcBPWSlAe6Snvwq4BkDcGlQ/1Sy8PqZQFL8BM8w/9wcOvoskQkAUR5+/pNkxv51ibcF8F+U/s1m8QIPSrL/qm3VA
lpc_rms=-25.74
sample=Flute_sustain_PP_D#6.opus
tune=+1

<region>
hivel=127
key=E6
loop_end=271819
loop_mode=loop_continuous
loop_start=114823
loop_xfade=19977
lovel=0
lpc=6gP6QdpbWsFQoaHA216dv3g0CMAxI4pA56ZRQFZQKcDNfYNAMGE1wFS4jkCGjwLA2KQwQFVwrr+akxpAWlShvtIZXUBNz2/AJW6VwXnI8b96SV9BGZGavipQlkAY753A
lpc_rms=-25.16
sample=Flute_sustain_PP_E6.opus
tune=+1

<region>
hivel=127
key=F6
loop_end=253446
loop_mode=loop_continuous
loop_start=107062
loop_xfade=18627
lovel=0
lpc=PPZSQlwz5ME5gSDBs5qQwPJihz+iMCBBWNelQJHowT7lizNAs2wfwIdWoEC2nCjANYdgQIJ1n78aIzo/rgTCQAeO58C2NQvCkjzKQGlgpUHmfb5AD3OMv950r8CkPezA
lpc_rms=-18.70
sample=Flute_sustain_PP_F6.opus

<region>
hivel=127
key=F#6
loop_end=260283
loop_mode=loop_continuous
loop_start=109950
loop_xfade=19129
lovel=0
lpc=RIkIQjQ1N8Fge0/BbFE+wB0uI0AkVu1AUS9hQGzEar5hF4RAA/QtwMWVU0A4hynA8jqJQMoKEMAvKltABfAjwEGlucFMPQ+/VKddQZs18kDlacG/04/GwAT1TMCY6da/
lpc_rms=-21.70
sample=Flute_sustain_PP_F#6.opus

<region>
hivel=127
key=G6
loop_end=261469
loop_mode=loop_continuous
loop_start=110451
loop_xfade=19216
lovel=0
lpc=3ySZQhIUGMI17eLAS5SfwQIeQkHsoN1B5dwuQcylqcCRHHtBuJ3YwIvsNkHfU3bAoKn8QItllD9pEgVBYcVXwtzCDsBHNPdBplV2QZuRe0ASQajB4gGOwXPt/UBREK3A
lpc_rms=-15.49
sample=Flute_sustain_PP_G6.opus
tune=+2

<region>
hivel=127
key=G#6
loop_end=267406
loop_mode=loop_continuous
loop_start=112959
loop_xfade=19653
lovel=0
lpc=p0AxQl4hlcFjOk/BsMqmwKadPD8ZAZdAigwjQeVbjEA1SlE/h87Fv5UFBkAouuK+2WurQEYW6sAlYY7BXb59wTkinEF72jxBG/SrP9mjdsCK1f7ABqnOwPDWND5sNYm/
lpc_rms=-18.88
sample=Flute_sustain_PP_G#6.opus

<region>
hivel=127
key=A6
loop_end=267824
loop_mode=loop_continuous
loop_start=113135
loop_xfade=19684
lovel=0
lpc=sbNKQjwxV8FroI7BaG4IP/q8dT+soGtBY8alP+Ekij8xNoJBH6U2wZqAw0BRwR/A2PsOQZdk8MGi6K3BDgNyQcTFXEG1fvY/3L4dwdHyBsFlK0dArTBDwZpskD4OUcE/
lpc_rms=-17.01
sample=Flute_sustain_PP_A6.opus

<region>
hivel=127
key=A#6
loop_end=267417
loop_mode=loop_continuous
loop_start=112963
loop_xfade=19654
lovel=0
lpc=vUIUQhT8mcFFYyzB5K7JwPZOZUATfyNAFj8oQW6kxj914Xa/CAapv8bxt0CKJ1s9a+VKwSSrh8FRGBNBxphPQUxQxkCgkovA5dzdwOT/Y8BBdjXAy6omPlVtgL94n92/
lpc_rms=-17.87
sample=Flute_sustain_PP_A#6.opus

<group>
amp_veltrack=0
ampeg_attack=2
ampeg_release=0.35
group_label=MF
lpc_hicc1=84
lpc_locc1=43
volume=-2.5

<region>
hikey=D4
hivel=127
lokey=B3
loop_end=261899
loop_mode=loop_continuous
loop_start=110633
loop_xfade=19248
lovel=0
lpc=nJL8QUFCrsJKC7dC5ipMwuuvrUGdKhPAlNzFwG7UtL77YkVATLtDwABnr0AO34HAiTCoQB1CC8Fz9/RAcnz5wFb6G0EcourAJ8KeQJO7scCyCJVA8TlGwJMetD/K5dA8
lpc_rms=-24.63
pitch_keycenter=D4
sample=Flute_sustain_MF_D4.opus
tune=-1

<region>
hivel=127
key=D#4
loop_end=260555
loop_mode=loop_continuous
loop_start=110065
loop_xfade=19149
lovel=0
lpc=k8s4Qq8l88JJduJCpQZPwikZwkHTRIrAcIY8wGJ6VcHZyEJBW//TwDoWNEGJhu7AXoHUQPviAcG9wYpAKvhYwOrDcUC0NYjAJ2qSQKGQgr85tc29UixBv0Nm7b/9zv4/
lpc_rms=-22.58
sample=Flute_sustain_MF_D#4.opus

<region>
hivel=127
key=E4
loop_end=261171
loop_mode=loop_continuous
loop_start=110325
loop_xfade=19195
lovel=0
lpc=+LkQQifyxMIr5bxCzb8Uwk0fDEFOVZxAFQihwbPXekHsXqzAEvm5P9j7DT8A4hvAXs4HQQNvOcFslQlBNF34wHoI3kA/8iHA77XLP7V5JMCE3xq8zDWlP6iL6j6aaD2/
lpc_rms=-21.74
sample=Flute_sustain_MF_E4.opus
tune=+1

<region>
hivel=127
key=F4
loop_end=270099
loop_mode=loop_continuous
loop_start=114097
loop_xfade=19851
lovel=0
lpc=wfHGQeXeb8I0nDZCiEsVwURsk0CUhKbAhlTFv9PLG8AUJPJAXbDjwG4a2kDG1sXA/dTOQKu5q8DyBo9AcBuRwJssbUCuW5TAeTGCQEjeWb8TZxFAnyagwNvSSECCgfC+
lpc_rms=-23.08
sample=Flute_sustain_MF_F4.opus

<region>
hivel=127
key=F#4
loop_end=269150
loop_mode=loop_continuous
loop_start=113696
loop_xfade=19781
lovel=0
lpc=AIHAQafebMLwaUlChuRrwXM5rMCAF2JB5sQ3waaMS8C46ElBars7wXJJ4EBj6UvABWz6QAASKcF61oNA69f8PuhdJsAmujhApeixP/+tvMDZTHZAqZKwQDR5FsE+eXdA
lpc_rms=-21.15
sample=Flute_sustain_MF_F#4.opus

<region>
hivel=127
key=G4
loop_end=266287
loop_mode=loop_continuous
loop_start=112486
loop_xfade=19571
lovel=0
lpc=nZC1Qd1yaMKmZUVC01kPwRIl3MDuiqRAhVuQwHtCsL/hTgFB8/cHwa1QxUBPMovAxynBQLorBsHHQshAQW5CwIRpUkCJvknAW+QMQM8yQMBegFNA6w0awLRQA0AyyoK/
lpc_rms=-19.71
sample=Flute_sustain_MF_G4.opus
tune=+2

<region>
hivel=127
key=G#4
loop_end=267479
loop_mode=loop_continuous
loop_start=112990
loop_xfade=19658
lovel=0
lpc=oLOiQQ3IRMKADCJCXT9XwZ5sqUD+wu89epyawE16A8BpT49AFE0svyoj1D+nSD2/cMjgPwxX8cAiP95An7O+wCr98UCTlonAeNxjQHFuX8B9KyHAYhRoQL2SBz87djO/
lpc_rms=-20.95
sample=Flute_sustain_MF_G#4.opus
tune=+2

<region>
hivel=127
key=A4
loop_end=266297
loop_mode=loop_continuous
loop_start=112491
loop_xfade=19571
lovel=0
lpc=ue/OQfi+isL3UoNC03TDwV+ozUCMXETACdpZwAu3F7/N69xA8z2IwCGnhkDfqyLBMCMnQfnhPMBi4Ow/22vCwAuYlkD6po3AB6/FQGPKCcCeDna//4YawOhTmECkM/+/
lpc_rms=-20.25
sample=Flute_sustain_MF_A4.opus
tune=+1

<region>
hivel=127
key=A#4
loop_end=272297
loop_mode=loop_continuous
loop_start=115025
loop_xfade=20012
lovel=0
lpc=4UziQcN6jsJ3A1lC5c9EwA7h48CcHx5AO9jewBcioL+fxxdBNMNWwAkv9b3Rj0XAcwBwQKu/D8D7jQNAQOQ+wKjIrEDMQ7zAqG82vElVhkDBTRfACEiDQBj7wMCRFCJA
lpc_rms=-18.32
offset=10790
sample=Flute_sustain_MF_A#4.opus
tune=+1

<region>
hivel=127
key=B4
loop_end=259048
loop_mode=loop_continuous
loop_start=109428
loop_xfade=19039
lovel=0
lpc=zKCmQYFaSsLBaypCO4hBwWzOwL8Mt6NADlO/wEeJB0BIPTC+VbO9v/s6qUC9ArzAqH+jQI/xW8BhFytAWn5OwL98yz+ij5y/U/hhQBMG1b+uALK+6Jbrv/8KhD+WR1A/
lpc_rms=-19.42
sample=Flute_sustain_MF_B4.opus
tune=+3

<region>
hivel=127
key=C5
loop_end=275023
loop_mode=loop_continuous
loop_start=116177
loop_xfade=20213
lovel=0
lpc=1Qf7QTx+msIehYBCAgqJwesHa77XAw1AH1qTwGEW+z6ojnRAW0RdwIsNVUC/O5LA+vwDQUb6IcGeVQVByqDrwMHNl0AFaoG/Hfv/P9OXSsDyHkBAoXAsP195zsAqiJdA
lpc_rms=-16.75
offset=9786
sample=Flute_sustain_MF_C5.opus

<region>
hivel=127
key=C#5
loop_end=268231
loop_mode=loop_continuous
loop_start=113307
loop_xfade=19713
lovel=0
lpc=TvCiQY/mRsI7hSdCjt44wadL2b5uoxNA85uCwCC8oT98DhVAxKJbwIwzhUCAlinAm5joPywkIMCqypY/dTKMv5QCM0BXq6O/QhSYPisl6L/nQPk/l6R4QG8wEcFThaRA
lpc_rms=-19.54
sample=Flute_sustain_MF_C#5.opus
tune=+1

<region>
hivel=127
key=D5
loop_end=263804
loop_mode=loop_continuous
loop_start=111437
loop_xfade=19388
lovel=0
lpc=yxuZQSCAJMLfgOZB42MzwHKn1sBxrMJAyQuDPKb/ncBsmllAAZsIwNUabEBRlRHANtwrQOIAgMCeMO4/VLeKv1m1EED09BXAfyOFQPJQYcBg4R5A1HOLv1U9Z8A6T35A
lpc_rms=-19.55
offset=5075
sample=Flute_sustain_MF_D5.opus
tune=+1

<region>
hivel=127
key=D#5
loop_end=253593
loop_mode=loop_continuous
loop_start=107124
loop_xfade=18638
lovel=0
lpc=Sa7NQY5ALcJS0PpACGudQRl/mb+DCP7AHIHxP81xksDQcNFApCGsv3xhWj7euNS/EpZOQOFpk8CB00tAW6Btvs4yHT80v4G+SFzbP9/0/b9ytWdAeG5hwPoGH8B7opJA
lpc_rms=-17.65
offset=3818
sample=Flute_sustain_MF_D#5.opus

<region>
hivel=127
key=E5
loop_end=254773
loop_mode=loop_continuous
loop_start=107622
loop_xfade=18724
lovel=0
lpc=Xd+yQYafFsIIdX1BuRqLQEZC67/MToA/VlyPv3rmJ71b7MI/KMv+vxM3QEA2wYTAed+dQLxBY8AJ7kJAY8o6wA1uNEDxUnw/S/7svpJ/6z0Zmga/JHxrPqX/GMDdI4BA
lpc_rms=-18.42
sample=Flute_sustain_MF_E5.opus
tune=-2

<region>
hivel=127
key=F5
loop_end=259380
loop_mode=loop_continuous
loop_start=109569
loop_xfade=19063
lovel=0
lpc=6ErPQbZoJ8L5PHhBWWvTQBnDoT7Dl0I+HJ1MwP4hhj+Gfps/YS4dwH4amUDAIz/ANQeYQPLZmMDzWzZAj+efv7ZsTkDRlAvAQwx2PwG66D9IwM0/CQsNwBtnmcCkautA
lpc_rms=-15.19
sample=Flute_sustain_MF_F5.opus
tune=-1

<region>
hivel=127
key=F#5
loop_end=279060
loop_mode=loop_continuous
loop_start=117882
loop_xfade=20509
lovel=0
lpc=1hCiQRc+6MGU9RJAKSNRQVKhBsCinHC/kYrJv4B8GcDJ26NAqmdNwHDHKEDQqzzAJWsjQL8A9r/hiSZA4w4hQN49u78IyPq/NrP/PreqHb69tHY/yKIUPtC+Gz/LAdG+
lpc_rms=-15.71
offset=11999
sample=Flute_sustain_MF_F#5.opus
tune=-5

<region>
hivel=127
key=G5
loop_end=266220
loop_mode=loop_continuous
loop_start=112458
loop_xfade=19566
lovel=0
lpc=ImbOQWvMBcLUABZBoEfEQKuhiD/Aw5W/O2QTQDxQOMANqrFA3FoWv2rmpr9FSwM/ETp+P710iT9RCEZAn28tQEUnV8BKok8/SbRgv2PliUCGoJu/fdEEQIvjab5v8i5A
lpc_rms=-13.33
sample=Flute_sustain_MF_G5.opus
tune=-8

<region>
hivel=127
key=G#5
loop_end=255971
loop_mode=loop_continuous
loop_start=108129
loop_xfade=18812
lovel=0
lpc=/fiUQRF7kcHXqeK/8AcHQctwjz8+cLa+VEMRQPrQLcAYyHpAIXB0v+0+7j9twyHA3nt3QGMOzL22nkxAcvA8P1EEGcA+F64+hTUCQPV/7z9T6rm+IG2oPy1CzT9H0Ps+
lpc_rms=-17.21
sample=Flute_sustain_MF_G#5.opus

<region>
hivel=127
key=A5
loop_end=261687
loop_mode=loop_continuous
loop_start=110543
loop_xfade=19232
lovel=0
lpc=LOyQQdwTo8HFPGVA8DyWQPAcxD+ttx0/af/wv3UeI75/1J5AdycMwK+8az/1Iz7AJ2+gQNKjez/hj+M/toV7wLjucz+oO/g/iNU5QGUpA8BaM3y+DeEKQEbujkADS5TA
lpc_rms=-16.37
sample=Flute_sustain_MF_A5.opus
tune=-5

<region>
hivel=127
key=A#5
loop_end=264622
loop_mode=loop_continuous
loop_start=111783
loop_xfade=19448
lovel=0
lpc=35fJQS3MxsHOlK9AYHO8QB18MMAp9p5A9sHhvsgqBj4p7mFAdUarv5jjBL6PA7c+vKbfQDZKET3g/FO/gpTuv0hJT0CQ/ng/rYsaQF8LRz+yLLM/JWxaP9ByJEDuoJbA
lpc_rms=-15.11
sample=Flute_sustain_MF_A#5.opus
tune=-6

<region>
hivel=127
key=B5
loop_end=270965
loop_mode=loop_continuous
loop_start=114462
loop_xfade=19914
lovel=0
lpc=XV7zQTnS9cEMPVlBiFcBvuKLzL+66XBANPHjP8W0dsAr5aNA0U8owN2FHECKQbi/zljfQK5/fcBXRV0+sH19P1ONIkDCTru/7SY0QLrCmz8juKe/R5KIP5nCgUDKyDfB
lpc_rms=-12.22
sample=Flute_sustain_MF_B5.opus
tune=+3

<region>
hivel=127
key=C6
loop_end=277317
loop_mode=loop_continuous
loop_start=117146
loop_xfade=20381
lovel=0
lpc=73fZQQk+7MF5n4tAnEvbQIPsnr9M4iFASdKVv6nAjz9GFghAZTBRwCRHtz/jZLpALKgaQEoZ5sDQZ4A/6tOfQBCvrD9Co9y/wPgOQMWear5XhBpAoDoqwCnYGMHCPgRB
lpc_rms=-14.10
offset=13770
sample=Flute_sustain_MF_C6.opus
tune=-4

<region>
hivel=127
key=C#6
loop_end=265482
loop_mode=loop_continuous
loop_start=112146
loop_xfade=19511
lovel=0
lpc=1JS+QejRjsHRHMC//O2OQB75uL4wOJtA8KeSP6mlSD92ahVAFBkbv8rGwUA9+Kw/L8b2P+KywL4JR/g/7qhaQPQM0z9u5e0/82i8P0eaxj+XCBhANFrswHe4g8Df2z9B
lpc_rms=-17.85
sample=Flute_sustain_MF_C#6.opus

<region>
hivel=127
key=D6
loop_end=268649
loop_mode=loop_continuous
loop_start=113484
loop_xfade=19744
lovel=0
lpc=qm+vQX2bR8G/dYXAXOtiQOh007/s9o4/aZM7P7l2f7/LGq0/0rR/vx+lCEDZfba/guK1P7WV+b5BouY9kbLMP27hrL+IyZo/rcgoPxnB8L7Q7j3Bfs2JwFBsNkEXfMu/
lpc_rms=-19.25
offset=13746
sample=Flute_sustain_MF_D6.opus
tune=+1

<region>
hivel=127
key=D#6
loop_end=265309
loop_mode=loop_continuous
loop_start=112073
loop_xfade=19499
lovel=0
lpc=dQWgQSzhLsELgjHAWeb0P1tc5z/7Gm6/+zlMQLwjAMDUVUFAm77iv1PyN0D9i3+/ZA4BQPygZbyNe0M9xevrPzUaDL/bpxRAdgxpvzUMRsEXqHc9UiQJQYHpDL/xIKe/
lpc_rms=-16.42
sample=Flute_sustain_MF_D#6.opus
tune=+1

<region>
hivel=127
key=E6
loop_end=268817
loop_mode=loop_continuous
loop_start=113555
loop_xfade=19756
lovel=0
lpc=qzkmQo/p28HIUkXAx/zrv4UEMT/IuiVBENFjQIQ7M8CFKshAHGlbwB9YwUBSbd2/UqlpQH/eTb9utGxA1K2Uv/dPmkB3sSi/qkv3wT6DJUHrNo1Bh5QcwCfEr0BMJDXB
lpc_rms=-13.16
offset=14166
sample=Flute_sustain_MF_E6.opus
tune=+1

<region>
hivel=127
key=F6
loop_end=269628
loop_mode=loop_continuous
loop_start=113897
loop_xfade=19816
lovel=0
lpc=Cjn4QdI1kcHN7xW/nDMoQBDCM0DWZ8lAiVmhP+RK7D+fsoBAkM3ave8vuEA6JWO/ElWXQONH9T80YMc/XX+bQKjG57/4NpzBd2oJQR8FIUEgjiK/pd4pwBqkyr9L3iA+
lpc_rms=-16.89
offset=8050
sample=Flute_sustain_MF_F6.opus
tune=-3

<region>
hivel=127
key=F#6
loop_end=252714
loop_mode=loop_continuous
loop_start=106753
loop_xfade=18573
lovel=0
lpc=goHxQSEVLMER0C/A9q83QCivF8BWJ/JAEnu8QEAhkT8NVbZAc/+KP63erkCHPzI//dKVQODc0D8+HJ1Aym8fP+U4lcEesRFA25EhQX+jCUBr7hNApZWiv7p7fMCEY8a9
lpc_rms=-16.17
sample=Flute_sustain_MF_F#6.opus
tune=-1

<region>
hivel=127
key=G6
loop_end=253911
loop_mode=loop_continuous
loop_start=107258
loop_xfade=18661
lovel=0
lpc=uCuRQpGf9MEKxI3BCP8WvlW8JEE90itBY0yjQV8kCj+nZjdBrlAuQJdEu0BSnQlAy+TwQN0dHECB3yBBMTJSwuJGgb+HGhZCtuzOQEbrAMDy2AbBOrI/wVBn2r+sRoTA
lpc_rms=-7.78
sample=Flute_sustain_MF_G6.opus

<region>
hivel=127
key=G#6
loop_end=266877
loop_mode=loop_continuous
loop_start=112736
loop_xfade=19614
lovel=0
lpc=/OYoQqL3jMHlDezA0CFOv86tiEBG34NAkhwuQVrLVECGie1Ahbe6wJRX2kA8NIw/UtcoQB7Z4UBgysrBcSAgwURDsUHW9FlAoS7iP4bZy7/5ItPARNYNwFN6nMCekJ1A
lpc_rms=-10.98
sample=Flute_sustain_MF_G#6.opus
tune=+2

<region>
hivel=127
key=A6
loop_end=257377
loop_mode=loop_continuous
loop_start=108722
loop_xfade=18916
lovel=0
lpc=8K6HQohl7cGUbcPArBfZP2fcIUBH7YxBP7ydQeE84kBUuxVBnHo9wE1VEkEUvntApiaHQWxr68Fna8TBemf/Qe/EGUGuB+ZAc4phwLygKsF3wRDBlZUFwCwWlkBsy4FA
lpc_rms=-9.40
sample=Flute_sustain_MF_A6.opus

<region>
hivel=127
key=A#6
loop_end=260019
loop_mode=loop_continuous
loop_start=109839
loop_xfade=19110
lovel=0
lpc=3ONjQjTousFyYUHBqsr4Pz+U+r0s+Q1BSZ2GQZ0fVD/sHY++dT4cQIde+j/A10lAbKpbweGkDMIsbIJBmYBjQS/+MEBGYn6+3CNZwfDOysDS+yS/ovI8wBHibUAaOe69
lpc_rms=-7.65
sample=Flute_sustain_MF_A#6.opus
tune=+1

<group>
amp_veltrack=0
ampeg_attack=2
ampeg_release=0.35
group_label=FF
lpc_hicc1=127
lpc_locc1=85
volume=-2.5

<region>
hikey=D4
hivel=127
lokey=B3
loop_end=252532
loop_mode=loop_continuous
loop_start=106676
loop_xfade=18560
lovel=0
lpc=Z3MyQmoJ+cKt/PlC1QxawtWWi0ENzgTBFvgRvzVl8b/D7NxAx+pOwYC6iUE9GijBuyovQfxJk8EhhndB+pghwUER30DzMBXAH68nQKysK8AtwHY/T8M1wHp5E0Dy0Ay9
lpc_rms=-20.40
pitch_keycenter=D4
sample=Flute_sustain_FF_D4.opus

<region>
hivel=127
key=D#4
loop_end=254717
loop_mode=loop_continuous
loop_start=107599
loop_xfade=18720
lovel=0
lpc=ugQyQpFK9cIvsQJD8Aacwm+0JEJmdJrBFazOQOBohsAlknVA7YWywHBDrUA6sRbA4d6cQC3WEMGR2h5BwYgQwXXb+ED09lbATpL3v4ArFkB/uxDA3B07QKvAnL+JJ08+
lpc_rms=-20.46
sample=Flute_sustain_FF_D#4.opus

<region>
hivel=127
key=E4
loop_end=261109
loop_mode=loop_continuous
loop_start=110299
loop_xfade=19190
lovel=0
lpc=8FwYQgjlycLCUL9C3cMpwmpvJ0GQ0ylBvYxmwXRQsL/ZgQVB9cwywTYzdEF8TzfB3ccfQcOnUcF3Ou1AGPxhPvQ6/T/lToTAzeGVQA4b/sBFqOJAxAFrwJJA0z+M9W++
lpc_rms=-20.23
sample=Flute_sustain_FF_E4.opus
tune=+1

<region>
hivel=127
key=F4
loop_end=275329
loop_mode=loop_continuous
loop_start=116306
loop_xfade=20235
lovel=0
lpc=TMfVQbADiMKkGl1CB2Uzwf5rNkAT0afAbJ6VwHuSekAYnoNARGfuwCOtAEHAAtPAZnDqQBaV3sBNw8U/L4pGv1NrvUAf7ebAYPinQCvlXsBIYRZA+sM1wOiRPEBjOZS/
lpc_rms=-20.07
offset=16253
sample=Flute_sustain_FF_F4.opus
tune=-2

<region>
hivel=127
key=F#4
loop_end=256341
loop_mode=loop_continuous
loop_start=108285
loop_xfade=18839
lovel=0
lpc=tyXwQQjFncIAx5dCcXYawv0XuUGRYQDBFQcDwX1+T0BGirM/g6eMPRIKz0AO07rAJDwFQDISGcGnmC9BfmWmwM/ExUCHZZHA1NA6PmcA2L6anXM9u0WRPzDaxz331vS+
lpc_rms=-17.68
sample=Flute_sustain_FF_F#4.opus

<region>
hivel=127
key=G4
loop_end=255361
loop_mode=loop_continuous
loop_start=107871
loop_xfade=18767
lovel=0
lpc=OBDcQcnmksJ+w5BC5REFwkUkFUHgJ0lAedQgwYAlwUAh8UPAnjZxQAe3jL4nSmXA+z9xQJJIksAiKvRA2UzPwCReNkA8naS/lsVbP2rPFMA/GX9AdnsPwNK0v74LZDQ/
lpc_rms=-18.22
offset=10545
sample=Flute_sustain_FF_G4.opus

<region>
hivel=127
key=G#4
loop_end=254771
loop_mode=loop_continuous
loop_start=107622
loop_xfade=18724
lovel=0
lpc=o9GyQfiracK08l1Cih3KwWtUSEFDatDAXSQ7v0d4BsBUO9lAp1/UwEDy1kDYkLfAzmKLQCZsj8AjOl9AbKbWvywUMEC5bonAodckQHqrK78EnMU+SmGhP6cWEcCBnH0/
lpc_rms=-18.60
sample=Flute_sustain_FF_G#4.opus

<region>
hivel=127
key=A4
loop_end=255940
loop_mode=loop_continuous
loop_start=108116
loop_xfade=18810
lovel=0
lpc=hobAQdb8cMKswVNCWpGBwao11L8ZhU1AK2vovw+DxL4lQDRAYH6fwHAt2kAl/OHAuj+1QFZwosATvaJAJvQKwBgqsj52sEbApLWqQP7bc8A4Jn9AOnR4wGtLF755gqo/
lpc_rms=-17.19
sample=Flute_sustain_FF_A4.opus
tune=+1

<region>
hivel=127
key=A#4
loop_end=263849
loop_mode=loop_continuous
loop_start=111456
loop_xfade=19391
lovel=0
lpc=9LuPQbgDLsJuEQ1CDv8cwWiaO0Bkh3m/wUEMwMPPKcA3RXtAo42/viRlPECK5LnAN6aPQPUmgMDGrrNAujptwEETob6yjTI/1MDdPjwpTb9ye1E/rbLOP+l6ecCNUQxA
lpc_rms=-17.92
sample=Flute_sustain_FF_A#4.opus

<region>
hivel=127
key=B4
loop_end=256373
loop_mode=loop_continuous
loop_start=108298
loop_xfade=18842
lovel=0
lpc=s16DQcSnG8KYXQRCSHd0wfPCS0GumBrBuNRVQGzDm8CiGwBBkdb1wDzc/0CQgu3ADSbXQNo528DQ6ZVANHIFwLFzVEDef1jA56ZuPj+2Fb/0kiVALJyIvSpE97/pqy0/
lpc_rms=-20.10
sample=Flute_sustain_FF_B4.opus
tune=+2

<region>
hivel=127
key=C5
loop_end=263832
loop_mode=loop_continuous
loop_start=111449
loop_xfade=19390
lovel=0
lpc=kjiPQapbMMIY5xZC0U06wbBG+j50RxxAXEYawEfOi79ppz5AcUy3wLsC80DnC6TABGnVQLlcFsH8FqhAfTYcwL+FeEAOtsi/45CvPs5YLsAAdQdAA+BePnD1P78/ado+
lpc_rms=-17.77
sample=Flute_sustain_FF_C5.opus

<region>
hivel=127
key=C#5
loop_end=260854
loop_mode=loop_continuous
loop_start=110191
loop_xfade=19171
lovel=0
lpc=v62zQXG4VcKI2ipC5BtFwSxAqkDmlZTAocn8P3zuwcANaQNBNH65wJ/T80C0AxPBMcrYQFSctMDBs7xArSQ1wLnmwb+LNH1A1MldwDW0fT8CRCc/gjiEQAcaE8FpPKlA
lpc_rms=-16.15
sample=Flute_sustain_FF_C#5.opus
tune=+2

<region>
hivel=127
key=D5
loop_end=264278
loop_mode=loop_continuous
loop_start=111638
loop_xfade=19423
lovel=0
lpc=wgt9QUvsFMKqTARCqch8wRlZC0E0KojAA3UWQEBrdsCM1NE/khqoPq5avD/HYgLAzxv7P7DuNMASS1FAcPAiv5IDiL/UxFO/SMSMP/ZrhD/GlgG/B2LVP2fjgsBQCypA
lpc_rms=-16.87
sample=Flute_sustain_FF_D5.opus
tune=+1

<region>
hivel=127
key=D#5
loop_end=267829
loop_mode=loop_continuous
loop_start=113138
loop_xfade=19684
lovel=0
lpc=rfKXQfvSIsKrae1BnvugwKfgh8DyGY9AQViSPcdagsDx2HFAFdVCwJN2AkB4fx4+DoAUQAoypMBcCaxAaHt2wN604D8PqYe/UlcNQEErzb/4wdE/Ea1Hv6sdDsAQSjNA
lpc_rms=-16.52
sample=Flute_sustain_FF_D#5.opus
tune=+1

<region>
hivel=127
key=E5
loop_end=260415
loop_mode=loop_continuous
loop_start=110006
loop_xfade=19139
lovel=0
lpc=WGXNQbbxJ8J4cJVBrYIdQMnktsD7MApBhOlpwDUir7/ZxX5AexZywB4ijEC2karA/iCjQJrXhcDVSkFAnzjLPnjCs76kgxpAdjpQP7LyPsCuwwNAVhsGwAhq5L/lHqlA
lpc_rms=-16.54
sample=Flute_sustain_FF_E5.opus
tune=-2

<region>
hivel=127
key=F5
loop_end=268184
loop_mode=loop_continuous
loop_start=113288
loop_xfade=19710
lovel=0
lpc=9BrIQSPbOsJnCuhBg2ZLwKkQWsBXQq5AP055P5Eb0cBSTK9AMTWbwMWApUDBiinADwrxQEKaJMFTPqlAny+ZvxAFLkB+X5q+K+QRQE4tssCFWaRAJKLPvxOKDcBihIpA
lpc_rms=-12.64
sample=Flute_sustain_FF_F5.opus
tune=+2

<region>
hivel=127
key=F#5
loop_end=257149
loop_mode=loop_continuous
loop_start=108626
loop_xfade=18899
lovel=0
lpc=8qDxQXFGO8J9LMpBWm6xvxFlgMBbagpBeWZ4v3LbpMCuscRAYxt7wF2ZqUAyFXLA5eDmQJZS5cBUa7ZA/ojUvrq+Fz9Fahg/GkBlQIbWlMC6Er9A41UJwEN0icCafQlB
lpc_rms=-10.75
sample=Flute_sustain_FF_F#5.opus
tune=-2

<region>
hivel=127
key=G5
loop_end=262178
loop_mode=loop_continuous
loop_start=110751
loop_xfade=19268
lovel=0
lpc=lFeTQedNycFzLzNB6lDBP2W4IEBZUnHAq4waQBwpej9Kwdw/Aq6+v6nhVECRaTrASp9lQPW2NcA2n6lAON61v/Vd9T+9ggrALFTeP4O5gT8Ebf8/ygxwv4kGlb9rHZJA
lpc_rms=-14.88
sample=Flute_sustain_FF_G5.opus
tune=-1

<region>
hivel=127
key=G#5
loop_end=259980
loop_mode=loop_continuous
loop_start=109822
loop_xfade=19107
lovel=0
lpc=+JDQQQK7CMIFG5VB4rGVvpN/uD++BOE/pvwdP/SyZj9PojJAVuWlv1TGy0A0NazAO9jfQMhrqL9C1CdAr0gVP4WROkAVPKS/pgo6QJU8LkC8jJy/ypUWQC1nvD5DPp5A
lpc_rms=-12.68
sample=Flute_sustain_FF_G#5.opus
tune=+2

<region>
hivel=127
key=A5
loop_end=268260
loop_mode=loop_continuous
loop_start=113320
loop_xfade=19715
lovel=0
lpc=Dj/gQUpM+8E6nlBBxhQ/QFd3fUBQv6o/fA8uwMBHjED8moc/Mlm6QDwvOcBCwo8/5J0xQBQ/rUBnZRq+C+nTvjwrgz+p6a1AaT8TQL9m6L+bEks/SLeAQM23zkDWhCrA
lpc_rms=-12.88
sample=Flute_sustain_FF_A5.opus
tune=-3

<region>
hivel=127
key=A#5
loop_end=254737
loop_mode=loop_continuous
loop_start=107607
loop_xfade=18722
lovel=0
lpc=8Bi6QaoyxcE3AEtBydalQLBYZsDg3DtAff2uQA26gsDBy+9Ak37mvwKGcUDUSum+GnqJQK4MsD+Qf6o/CJaMPw68bUDCxNA+L1zUPz1VYUBGy2A/l+QXv+y2GkHKtb3A
lpc_rms=-10.75
sample=Flute_sustain_FF_A#5.opus
tune=-3

<region>
hivel=127
key=B5
loop_end=271862
loop_mode=loop_continuous
loop_start=114841
loop_xfade=19980
lovel=0
lpc=lST3Qd/DFsItlXZBQC2gQMD2tsCO9YtAgGuOP5BtY8BJnM5AEH6jwHYqwEDRt8XAyWcZQRSqzcCXM3pAN3mav5ICTEBQPy3AmxaNQOykq79Jr4M/gXaMPymYzr/8yZLA
lpc_rms=-6.37
sample=Flute_sustain_FF_B5.opus
tune=+1

<region>
hivel=127
key=C6
loop_end=260651
loop_mode=loop_continuous
loop_start=110106
loop_xfade=19156
lovel=0
lpc=FhDPQXuA/8H1zntBNFkmwL3IOj9/ClhA5h/1vj9F+D954Ve9fnwhQLRLUMDR1tRACsDyP0hMqsAngJFAzBmBP4LYzD8ew6U+z80LQH9OL78VrghAxvEbQLuVcsGPey5B
lpc_rms=-11.15
sample=Flute_sustain_FF_C6.opus
tune=-5

<region>
hivel=127
key=C#6
loop_end=257945
loop_mode=loop_continuous
loop_start=108963
loop_xfade=18957
lovel=0
lpc=77bIQe0YgsGnPeu+lINhQCR+6T5hZ31AFhLiP5WgR0Axwi9AJB6AP/jxe0CqaeI/76h6QI+wfj+97lRADk8aQGX+JUCGdxJACCFYQKH/sz979F1AADUnwcaFgcA+hmpB
lpc_rms=-13.61
sample=Flute_sustain_FF_C#6.opus
tune=-4

<region>
hivel=127
key=D6
loop_end=277166
loop_mode=loop_continuous
loop_start=117082
loop_xfade=20370
lovel=0
lpc=mxGiQYwnK8H1JOC/6Dc0QNniAj9JKz9AQxrCP0nU6z9OfStAjRTkPzao4D9EOuY/5DI5QKlyoj8Cm/M/dZEYQHSh2D+QpxhATvnwPw9XHUASKQjBqdiKwKyaHUEhiNw/
lpc_rms=-14.71
offset=32528
sample=Flute_sustain_FF_D6.opus
tune=+3

<region>
hivel=127
key=D#6
loop_end=258719
loop_mode=loop_continuous
loop_start=109289
loop_xfade=19014
lovel=0
lpc=ymNMQfMnqcCB1se/ee/2PzXn/D9EjMm8d4QaQLRUKD8fFwhAXRoMPvDm5j8m9Fc/HTrwP29SFz8PxNk/pO1UP+Gv2z/089c/Wq6/vrWN1MAHHFU/E/V9QA/qOj9tLUu/
lpc_rms=-18.09
sample=Flute_sustain_FF_D#6.opus
tune=-3

<region>
hivel=127
key=E6
loop_end=257016
loop_mode=loop_continuous
loop_start=108570
loop_xfade=18889
lovel=0
lpc=zeOwQTf9RsFVWnrAzT1JQD2qUr5us6Y/Y/9WQIKKUL8ZUn1Add60Pn7yOEBs+c0/gEnMPzU9FUBopwM/VRQ3QBqK6j/bLoU/HZlFwTh9gj6w2ktBCJwPv/6DGT8Ghkg/
lpc_rms=-16.50
sample=Flute_sustain_FF_E6.opus
tune=+5

<region>
hivel=127
key=F6
loop_end=263430
loop_mode=loop_continuous
loop_start=111279
loop_xfade=19361
lovel=0
lpc=0gftQRmWqcEB+SzACu6+QF4cib94XZFAm5nnP/8xiL9QTm9Ag/wRwDzoiUDgoybA/stWQM40Kr/y95w9msGGQCOZm8CHEY/B/LbrQEESOUGwtYrAIkARwLBxG74PmRXA
lpc_rms=-14.87
offset=5027
sample=Flute_sustain_FF_F6.opus
tune=-2

<region>
hivel=127
key=F#6
loop_end=257989
loop_mode=loop_continuous
loop_start=108981
loop_xfade=18961
lovel=0
lpc=ROjAQfGcgcG2gXXA1anWQOQTP8B6vqVA5DF9QL63CcCbnkZAkDoOwGk4NEDmXxzAV0LhPw1HAb6UeQq+7ikqPx4XjsEpUYNAwCQbQZz0YcDwkRe/JJIuwB1yccAt85y+
lpc_rms=-16.56
sample=Flute_sustain_FF_F#6.opus
tune=+1

<region>
hivel=127
key=G6
loop_end=239587
loop_mode=loop_continuous
loop_start=101207
loop_xfade=17608
lovel=0
lpc=G3QmQnWln8HJX2LAk6KTQI6AqD+c5gJARKZBQRU/Sb8p/hNBKNaQv76w8UByPgE+ZorVQLAhnb685CVB03H+wfFBKUB9FJtBH3sRwBd7jz+vZUtALYPbwBDGJj2e8JC/
lpc_rms=-10.76
sample=Flute_sustain_FF_G6.opus
tune=+1

<region>
hivel=127
key=G#6
loop_end=261095
loop_mode=loop_continuous
loop_start=110293
loop_xfade=19189
lovel=0
lpc=OLjYQdA7RsFrXFTA02onP01RMsDAi+dAwy6XQI91gj9O1DFA+ocSwAizSUDs9Ci/RPQUQJ8iM0BvP3vBh+fVwJHSREE+Jas/pkj1P6B3Rr29E9/AFhm/vliYhr8Tz84/
lpc_rms=-14.01
sample=Flute_sustain_FF_G#6.opus
tune=+3

<region>
hivel=127
key=A6
loop_end=249471
loop_mode=loop_continuous
loop_start=105383
loop_xfade=18335
lovel=0
lpc=IrBGQhc+tcFARPrAj7EtQfFkdr97ooBBgeXPQMUZT0AHAS9Br3WJv3Y0OEGOmIQ/8/RlQYntlcFJoanBXdsCQrhHB0DbI/g/ol7nPsdxBMGI9ldA6wkowLZ1EECJ1xM/
lpc_rms=-9.54
sample=Flute_sustain_FF_A6.opus
tune=+1

<region>
hivel=127
key=A#6
loop_end=265719
loop_mode=loop_continuous
loop_start=112247
loop_xfade=19529
lovel=0
lpc=GykcQlP1psF/OU++HUC7vx8nlEA2E+lAzxkeQcn+gEC4FmFA+MpHQPDERUBxkRNBB3mhwJ2ftsGDV7tBxNLBQLEJ00CN0Di+07IpwNZeS8DHVgxAijkmPyEyf0AJiqA+
lpc_rms=-12.64
sample=Flute_sustain_FF_A#6.opus

